<mxfile host="app.diagrams.net" modified="2021-03-04T10:22:03.543Z" agent="5.0 (Macintosh; Intel Mac OS X 11_2_2) AppleWebKit/537.36 (KHTML, like Gecko) Chrome/88.0.4324.182 Safari/537.36" etag="HLqDuBHz7sLk37twTBes" version="14.2.6" type="github">
  <diagram id="r2Cib_J4cxyyxRXWvh6M" name="Page-1">
    <mxGraphModel dx="1377" dy="526" grid="1" gridSize="10" guides="1" tooltips="1" connect="1" arrows="1" fold="1" page="1" pageScale="1" pageWidth="200" pageHeight="200" math="0" shadow="0">
      <root>
        <mxCell id="0" />
        <mxCell id="1" parent="0" />
        <mxCell id="FpBQQFxxlxs4gl_ymK-Z-21" value="" style="rounded=0;whiteSpace=wrap;html=1;" vertex="1" parent="1">
          <mxGeometry x="40" y="40" width="320" height="320" as="geometry" />
        </mxCell>
        <mxCell id="FpBQQFxxlxs4gl_ymK-Z-5" value="&lt;span style=&quot;font-size: 18px&quot;&gt;Kubernetes cluster&lt;/span&gt;" style="text;html=1;strokeColor=none;fillColor=none;align=center;verticalAlign=middle;whiteSpace=wrap;rounded=0;" vertex="1" parent="1">
          <mxGeometry x="90" y="45" width="220" height="30" as="geometry" />
        </mxCell>
        <mxCell id="FpBQQFxxlxs4gl_ymK-Z-10" value="" style="rounded=0;whiteSpace=wrap;html=1;" vertex="1" parent="1">
          <mxGeometry x="80" y="90" width="110" height="210" as="geometry" />
        </mxCell>
        <mxCell id="FpBQQFxxlxs4gl_ymK-Z-11" value="Vårt&lt;br&gt;namespace" style="text;html=1;strokeColor=none;fillColor=none;align=center;verticalAlign=middle;whiteSpace=wrap;rounded=0;" vertex="1" parent="1">
          <mxGeometry x="100" y="110" width="70" height="20" as="geometry" />
        </mxCell>
        <mxCell id="FpBQQFxxlxs4gl_ymK-Z-12" value="Pod 1" style="rounded=1;whiteSpace=wrap;html=1;fillColor=#dae8fc;strokeColor=#6c8ebf;" vertex="1" parent="1">
          <mxGeometry x="105" y="160" width="60" height="30" as="geometry" />
        </mxCell>
        <mxCell id="FpBQQFxxlxs4gl_ymK-Z-13" value="Pod 2" style="rounded=1;whiteSpace=wrap;html=1;fillColor=#dae8fc;strokeColor=#6c8ebf;" vertex="1" parent="1">
          <mxGeometry x="105" y="200" width="60" height="30" as="geometry" />
        </mxCell>
        <mxCell id="FpBQQFxxlxs4gl_ymK-Z-14" value="Pod ..n" style="rounded=1;whiteSpace=wrap;html=1;fillColor=#dae8fc;strokeColor=#6c8ebf;" vertex="1" parent="1">
          <mxGeometry x="105" y="240" width="60" height="30" as="geometry" />
        </mxCell>
        <mxCell id="FpBQQFxxlxs4gl_ymK-Z-16" value="" style="rounded=0;whiteSpace=wrap;html=1;" vertex="1" parent="1">
          <mxGeometry x="210" y="90" width="110" height="210" as="geometry" />
        </mxCell>
        <mxCell id="FpBQQFxxlxs4gl_ymK-Z-17" value="Namespace øvrige team" style="text;html=1;strokeColor=none;fillColor=none;align=center;verticalAlign=middle;whiteSpace=wrap;rounded=0;" vertex="1" parent="1">
          <mxGeometry x="230" y="110" width="80" height="20" as="geometry" />
        </mxCell>
        <mxCell id="FpBQQFxxlxs4gl_ymK-Z-18" value="Pod 1" style="rounded=1;whiteSpace=wrap;html=1;fillColor=#dae8fc;strokeColor=#6c8ebf;" vertex="1" parent="1">
          <mxGeometry x="235" y="160" width="60" height="30" as="geometry" />
        </mxCell>
        <mxCell id="FpBQQFxxlxs4gl_ymK-Z-19" value="Pod 2" style="rounded=1;whiteSpace=wrap;html=1;fillColor=#dae8fc;strokeColor=#6c8ebf;" vertex="1" parent="1">
          <mxGeometry x="235" y="200" width="60" height="30" as="geometry" />
        </mxCell>
        <mxCell id="FpBQQFxxlxs4gl_ymK-Z-20" value="Pod ..n" style="rounded=1;whiteSpace=wrap;html=1;fillColor=#dae8fc;strokeColor=#6c8ebf;" vertex="1" parent="1">
          <mxGeometry x="235" y="240" width="60" height="30" as="geometry" />
        </mxCell>
      </root>
    </mxGraphModel>
  </diagram>
</mxfile>
